<svg width="512" height="512" viewBox="0 0 512 512" fill="none" xmlns="http://www.w3.org/2000/svg">
<path d="M400.096 107.406C389.682 77.5039 370.147 51.5717 344.21 33.2175C318.273 14.8633 287.224 5 255.384 5C223.543 5 192.494 14.8633 166.557 33.2175C140.62 51.5717 121.086 77.5039 110.671 107.406C87.7409 110.458 66.0766 119.647 47.996 133.991C29.9155 148.335 16.099 167.294 8.02448 188.839C-0.0500257 210.384 -2.07873 233.705 2.15537 256.308C6.38948 278.911 16.7271 299.944 32.0624 317.159C33.9148 320.401 36.4638 323.198 39.5279 325.35C42.592 327.502 46.0959 328.956 49.79 329.608C53.484 330.261 57.2775 330.096 60.9002 329.126C64.5229 328.155 67.8857 326.403 70.7493 323.994C73.6128 321.585 75.9065 318.577 77.4672 315.187C79.0278 311.796 79.817 308.105 79.7785 304.377C79.74 300.648 78.8748 296.974 77.2444 293.616C75.6141 290.258 73.2587 287.298 70.346 284.948C60.4718 273.977 54.0113 260.396 51.7475 245.85C49.4837 231.304 51.5138 216.418 57.5918 202.996C63.6698 189.574 73.5347 178.191 85.9911 170.228C98.4474 162.265 112.961 158.063 127.771 158.132H130.324C136.295 158.252 142.119 156.287 146.782 152.579C151.445 148.872 154.653 143.657 155.846 137.841C160.532 114.907 173.053 94.2884 191.286 79.4782C209.52 64.6681 232.345 56.5777 255.894 56.5777C279.443 56.5777 302.268 64.6681 320.502 79.4782C338.735 94.2884 351.256 114.907 355.942 137.841C357.135 143.657 360.343 148.872 365.006 152.579C369.67 156.287 375.494 158.252 381.464 158.132H382.996C397.807 158.063 412.32 162.265 424.776 170.228C437.233 178.191 447.097 189.574 453.175 202.996C459.253 216.418 461.284 231.304 459.02 245.85C456.756 260.396 450.296 273.977 440.421 284.948C438.173 287.453 436.448 290.377 435.345 293.55C434.243 296.723 433.785 300.082 433.999 303.432C434.212 306.783 435.093 310.057 436.59 313.067C438.087 316.076 440.17 318.76 442.718 320.963C447.371 325.041 453.359 327.295 459.563 327.304C463.187 327.3 466.768 326.528 470.069 325.041C473.369 323.554 476.313 321.386 478.705 318.681C494.466 301.496 505.169 280.335 509.644 257.513C514.119 234.691 512.194 211.086 504.08 189.277C495.966 167.469 481.974 148.297 463.635 133.858C445.296 119.419 423.315 110.268 400.096 107.406Z" fill="white"/>
<path d="M266.225 499C273.4 499 278.782 494.497 282.37 485.49L389.462 234.752C389.821 233.671 390 232.41 390 230.969C390 227.367 388.744 224.304 386.233 221.783C383.722 219.261 380.672 218 377.084 218H355.02C347.845 218 342.643 222.323 339.414 230.969L256 427.129L172.586 230.969C169.357 222.323 163.438 218 154.827 218H134.916C131.328 218 128.279 219.261 125.767 221.783C123.256 224.304 122 227.367 122 230.969C122 232.41 122.179 233.671 122.538 234.752L229.631 485.49C233.218 494.497 238.779 499 246.313 499H266.225Z" fill="white"/>
</svg>
