<svg width="512" height="325" viewBox="0 0 512 325" fill="none" xmlns="http://www.w3.org/2000/svg">
<path d="M400.096 102.406C389.682 72.5039 370.147 46.5717 344.21 28.2175C318.273 9.86333 287.224 0 255.384 0C223.543 0 192.494 9.86333 166.557 28.2175C140.62 46.5717 121.086 72.5039 110.671 102.406C87.7409 105.458 66.0766 114.647 47.996 128.991C29.9155 143.335 16.099 162.294 8.02448 183.839C-0.0500257 205.384 -2.07873 228.705 2.15537 251.308C6.38948 273.911 16.7271 294.944 32.0624 312.159C33.9148 315.401 36.4638 318.198 39.5279 320.35C42.592 322.502 46.0959 323.956 49.79 324.608C53.484 325.261 57.2775 325.096 60.9002 324.126C64.5229 323.155 67.8857 321.403 70.7493 318.994C73.6128 316.585 75.9065 313.577 77.4672 310.187C79.0278 306.796 79.817 303.105 79.7785 299.377C79.74 295.648 78.8748 291.974 77.2444 288.616C75.6141 285.258 73.2587 282.298 70.346 279.948C60.4718 268.977 54.0113 255.396 51.7475 240.85C49.4837 226.304 51.5138 211.418 57.5918 197.996C63.6698 184.574 73.5347 173.191 85.9911 165.228C98.4474 157.265 112.961 153.063 127.771 153.132H130.324C136.295 153.252 142.119 151.287 146.782 147.579C151.445 143.872 154.653 138.657 155.846 132.841C160.532 109.907 173.053 89.2884 191.286 74.4782C209.52 59.6681 232.345 51.5777 255.894 51.5777C279.443 51.5777 302.268 59.6681 320.502 74.4782C338.735 89.2884 351.256 109.907 355.942 132.841C357.135 138.657 360.343 143.872 365.006 147.579C369.67 151.287 375.494 153.252 381.464 153.132H382.996C397.807 153.063 412.32 157.265 424.776 165.228C437.233 173.191 447.097 184.574 453.175 197.996C459.253 211.418 461.284 226.304 459.02 240.85C456.756 255.396 450.296 268.977 440.421 279.948C438.173 282.453 436.448 285.377 435.345 288.55C434.243 291.723 433.785 295.082 433.999 298.432C434.212 301.783 435.093 305.057 436.59 308.067C438.087 311.076 440.17 313.76 442.718 315.963C447.371 320.041 453.359 322.295 459.563 322.304C463.187 322.3 466.768 321.528 470.069 320.041C473.369 318.554 476.313 316.386 478.705 313.681C494.466 296.496 505.169 275.335 509.644 252.513C514.119 229.691 512.194 206.086 504.08 184.277C495.966 162.469 481.974 143.297 463.635 128.858C445.296 114.419 423.315 105.268 400.096 102.406Z" fill="white"/>
</svg>
