<svg width="1244" height="140" viewBox="0 0 1244 140" fill="none" xmlns="http://www.w3.org/2000/svg">
<path d="M171.161 44.1247C166.724 31.3037 158.4 20.1847 147.349 12.3149C136.297 4.44518 123.067 0.216064 109.5 0.216064C95.9329 0.216064 82.7031 4.44518 71.6515 12.3149C60.6 20.1847 52.2764 31.3037 47.8389 44.1247C38.0683 45.4334 28.8372 49.3736 21.1332 55.5238C13.4292 61.6741 7.542 69.803 4.10149 79.041C0.660973 88.279 -0.203449 98.2785 1.60068 107.97C3.40482 117.661 7.80963 126.68 14.3439 134.061C15.1332 135.451 16.2194 136.65 17.525 137.573C18.8306 138.496 20.3235 139.119 21.8976 139.399C23.4716 139.679 25.088 139.608 26.6316 139.192C28.1752 138.776 29.6081 138.025 30.8282 136.992C32.0484 135.959 33.0257 134.669 33.6907 133.215C34.3557 131.762 34.692 130.179 34.6756 128.58C34.6592 126.982 34.2905 125.406 33.5958 123.966C32.9011 122.527 31.8975 121.258 30.6564 120.25C26.4491 115.546 23.6963 109.723 22.7317 103.486C21.7671 97.2491 22.6321 90.8663 25.2219 85.1112C27.8117 79.3561 32.0151 74.4757 37.3227 71.0613C42.6303 67.647 48.8143 65.8454 55.1252 65.8747H56.2127C58.7568 65.926 61.2384 65.0835 63.2255 63.4939C65.2126 61.9042 66.5793 59.6681 67.0877 57.1747C69.0845 47.3412 74.4194 38.5004 82.1886 32.1502C89.9578 25.8001 99.6835 22.3311 109.718 22.3311C119.752 22.3311 129.478 25.8001 137.247 32.1502C145.016 38.5004 150.351 47.3412 152.348 57.1747C152.856 59.6681 154.223 61.9042 156.21 63.4939C158.197 65.0835 160.679 65.926 163.223 65.8747H163.875C170.186 65.8454 176.37 67.647 181.678 71.0613C186.985 74.4757 191.189 79.3561 193.778 85.1112C196.368 90.8663 197.233 97.2491 196.269 103.486C195.304 109.723 192.551 115.546 188.344 120.25C187.386 121.324 186.651 122.578 186.181 123.938C185.711 125.299 185.516 126.739 185.607 128.175C185.698 129.612 186.074 131.016 186.711 132.306C187.349 133.597 188.237 134.748 189.323 135.692C191.305 137.441 193.857 138.407 196.5 138.411C198.044 138.409 199.57 138.078 200.977 137.441C202.383 136.803 203.637 135.874 204.656 134.714C211.372 127.345 215.932 118.272 217.839 108.487C219.746 98.7012 218.926 88.5798 215.469 79.2289C212.011 69.8781 206.05 61.6578 198.235 55.4666C190.421 49.2755 181.055 45.3519 171.161 44.1247Z" fill="black"/>
<path d="M305.056 117C306.976 117 308.416 115.8 309.376 113.4L338.032 46.5839C338.128 46.2959 338.176 45.9599 338.176 45.5759C338.176 44.6159 337.84 43.7999 337.168 43.1279C336.496 42.4559 335.68 42.1199 334.72 42.1199H328.816C326.896 42.1199 325.504 43.2719 324.64 45.5759L302.32 97.8479L280 45.5759C279.136 43.2719 277.552 42.1199 275.248 42.1199H269.92C268.96 42.1199 268.144 42.4559 267.472 43.1279C266.8 43.7999 266.464 44.6159 266.464 45.5759C266.464 45.9599 266.512 46.2959 266.608 46.5839L295.264 113.4C296.224 115.8 297.712 117 299.728 117H305.056Z" fill="black"/>
<path d="M397.298 40.6799C407.57 40.6799 415.682 43.9439 421.634 50.4719C427.586 56.9999 430.562 65.8799 430.562 77.1119V80.9999C430.562 82.0559 430.178 82.9679 429.41 83.7359C428.642 84.5039 427.73 84.8879 426.674 84.8879H377.138V85.7519C377.33 92.0879 379.25 97.0799 382.898 100.728C386.642 104.28 391.442 106.056 397.298 106.056C402.098 106.056 405.794 105.432 408.386 104.184C411.074 102.936 413.474 101.16 415.586 98.8559C416.354 98.0879 417.026 97.5599 417.602 97.2719C418.274 96.9839 419.138 96.8399 420.194 96.8399H424.514C425.666 96.8399 426.626 97.2239 427.394 97.9919C428.162 98.7599 428.498 99.6719 428.402 100.728C428.018 103.32 426.578 106.008 424.082 108.792C421.682 111.48 418.178 113.784 413.57 115.704C409.058 117.528 403.634 118.44 397.298 118.44C391.154 118.44 385.682 117.048 380.882 114.264C376.082 111.384 372.242 107.448 369.362 102.456C366.578 97.4639 364.898 91.8479 364.322 85.6079C364.13 82.7279 364.034 80.5199 364.034 78.9839C364.034 77.4479 364.13 75.2399 364.322 72.3599C364.898 66.4079 366.578 61.0319 369.362 56.2319C372.242 51.4319 376.034 47.6399 380.738 44.8559C385.538 42.0719 391.058 40.6799 397.298 40.6799ZM417.602 72.7919V72.3599C417.602 66.5039 415.73 61.8479 411.986 58.3919C408.338 54.8399 403.442 53.0639 397.298 53.0639C391.73 53.0639 386.978 54.8399 383.042 58.3919C379.202 61.9439 377.234 66.5999 377.138 72.3599V72.7919H417.602Z" fill="black"/>
<path d="M500.35 42.1199C501.406 42.1199 502.318 42.5039 503.086 43.2719C503.854 44.0399 504.238 44.9519 504.238 46.0079V50.6159C504.238 51.6719 503.854 52.5839 503.086 53.3519C502.318 54.1199 501.406 54.5039 500.35 54.5039H491.998C486.622 54.5039 482.494 55.9439 479.614 58.8239C476.83 61.6079 475.438 65.6879 475.438 71.0639V113.112C475.438 114.168 475.054 115.08 474.286 115.848C473.518 116.616 472.606 117 471.55 117H466.222C465.166 117 464.254 116.616 463.486 115.848C462.718 115.08 462.334 114.168 462.334 113.112V46.0079C462.334 44.9519 462.718 44.0399 463.486 43.2719C464.254 42.5039 465.166 42.1199 466.222 42.1199H471.55C472.606 42.1199 473.518 42.5039 474.286 43.2719C475.054 44.0399 475.438 44.9519 475.438 46.0079V50.4719C477.358 47.5919 479.662 45.4799 482.35 44.1359C485.038 42.7919 488.542 42.1199 492.862 42.1199H500.35Z" fill="black"/>
<path d="M549.156 83.7359C535.14 80.7599 528.132 73.6079 528.132 62.2799C528.132 58.3439 529.188 54.7439 531.3 51.4799C533.412 48.2159 536.532 45.6239 540.66 43.7039C544.884 41.6879 550.02 40.6799 556.068 40.6799C562.02 40.6799 567.156 41.5439 571.476 43.2719C575.796 44.9999 579.06 47.1599 581.268 49.7519C583.572 52.3439 584.724 54.8399 584.724 57.2399C584.724 58.1999 584.34 59.0639 583.572 59.8319C582.804 60.5039 581.892 60.8399 580.836 60.8399H576.084C574.26 60.8399 572.82 60.1679 571.764 58.8239C568.788 54.9839 563.556 53.0639 556.068 53.0639C551.652 53.0639 548.052 53.8799 545.268 55.5119C542.58 57.1439 541.236 59.3999 541.236 62.2799C541.236 64.6799 541.908 66.5039 543.252 67.7519C544.596 68.9999 546.612 70.0079 549.3 70.7759C551.988 71.5439 556.74 72.6959 563.556 74.2319C572.004 76.0559 578.004 78.8399 581.556 82.5839C585.108 86.3279 586.884 90.8879 586.884 96.2639C586.884 100.2 585.636 103.848 583.14 107.208C580.74 110.568 577.236 113.304 572.628 115.416C568.116 117.432 562.836 118.44 556.788 118.44C550.836 118.44 545.556 117.528 540.948 115.704C536.436 113.784 532.932 111.48 530.436 108.792C527.94 106.104 526.692 103.56 526.692 101.16C526.692 100.2 527.076 99.3839 527.844 98.7119C528.612 97.9439 529.524 97.5599 530.58 97.5599H535.764C536.628 97.5599 537.396 97.6559 538.068 97.8479C538.74 98.0399 539.364 98.5679 539.94 99.4319C543.108 103.848 548.724 106.056 556.788 106.056C561.3 106.056 565.236 105.144 568.596 103.32C572.052 101.4 573.78 99.0479 573.78 96.2639C573.78 93.9599 572.916 92.1359 571.188 90.7919C569.556 89.3519 567.156 88.1999 563.988 87.3359C560.82 86.3759 555.876 85.1759 549.156 83.7359Z" fill="black"/>
<path d="M637.984 91.7999C637.984 95.9279 638.8 99.0959 640.432 101.304C642.16 103.512 645.376 104.616 650.08 104.616H657.712C658.768 104.616 659.68 105 660.448 105.768C661.216 106.536 661.6 107.448 661.6 108.504V113.112C661.6 114.168 661.216 115.08 660.448 115.848C659.68 116.616 658.768 117 657.712 117H648.64C640.48 117 634.48 114.888 630.64 110.664C626.8 106.344 624.88 100.056 624.88 91.7999V54.5039H614.224C613.168 54.5039 612.256 54.1199 611.488 53.3519C610.72 52.5839 610.336 51.6719 610.336 50.6159V46.0079C610.336 44.9519 610.72 44.0399 611.488 43.2719C612.256 42.5039 613.168 42.1199 614.224 42.1199H624.88V18.6479C624.88 17.5919 625.264 16.6799 626.032 15.9119C626.8 15.1439 627.712 14.7599 628.768 14.7599H634.096C635.152 14.7599 636.064 15.1439 636.832 15.9119C637.6 16.6799 637.984 17.5919 637.984 18.6479V42.1199H656.272C657.328 42.1199 658.24 42.5039 659.008 43.2719C659.776 44.0399 660.16 44.9519 660.16 46.0079V50.6159C660.16 51.6719 659.776 52.5839 659.008 53.3519C658.24 54.1199 657.328 54.5039 656.272 54.5039H637.984V91.7999Z" fill="black"/>
<path d="M719.976 40.6799C730.248 40.6799 738.36 43.9439 744.312 50.4719C750.264 56.9999 753.24 65.8799 753.24 77.1119V80.9999C753.24 82.0559 752.856 82.9679 752.088 83.7359C751.32 84.5039 750.408 84.8879 749.352 84.8879H699.816V85.7519C700.008 92.0879 701.928 97.0799 705.576 100.728C709.32 104.28 714.12 106.056 719.976 106.056C724.776 106.056 728.472 105.432 731.064 104.184C733.752 102.936 736.152 101.16 738.264 98.8559C739.032 98.0879 739.704 97.5599 740.28 97.2719C740.952 96.9839 741.816 96.8399 742.872 96.8399H747.192C748.344 96.8399 749.304 97.2239 750.072 97.9919C750.84 98.7599 751.176 99.6719 751.08 100.728C750.696 103.32 749.256 106.008 746.76 108.792C744.36 111.48 740.856 113.784 736.248 115.704C731.736 117.528 726.312 118.44 719.976 118.44C713.832 118.44 708.36 117.048 703.56 114.264C698.76 111.384 694.92 107.448 692.04 102.456C689.256 97.4639 687.576 91.8479 687 85.6079C686.808 82.7279 686.712 80.5199 686.712 78.9839C686.712 77.4479 686.808 75.2399 687 72.3599C687.576 66.4079 689.256 61.0319 692.04 56.2319C694.92 51.4319 698.712 47.6399 703.416 44.8559C708.216 42.0719 713.736 40.6799 719.976 40.6799ZM740.28 72.7919V72.3599C740.28 66.5039 738.408 61.8479 734.664 58.3919C731.016 54.8399 726.12 53.0639 719.976 53.0639C714.408 53.0639 709.656 54.8399 705.72 58.3919C701.88 61.9439 699.912 66.5999 699.816 72.3599V72.7919H740.28Z" fill="black"/>
<path d="M851.541 113.112C851.541 114.168 851.157 115.08 850.389 115.848C849.621 116.616 848.709 117 847.653 117H842.325C841.269 117 840.356 116.616 839.588 115.848C838.82 115.08 838.437 114.168 838.437 113.112V75.0959C838.437 67.8959 836.66 62.4239 833.108 58.6799C829.556 54.9359 824.613 53.0639 818.277 53.0639C812.037 53.0639 807.092 54.9359 803.444 58.6799C799.892 62.4239 798.116 67.8959 798.116 75.0959V113.112C798.116 114.168 797.733 115.08 796.965 115.848C796.197 116.616 795.284 117 794.228 117H788.9C787.844 117 786.933 116.616 786.165 115.848C785.397 115.08 785.012 114.168 785.012 113.112V18.6479C785.012 17.5919 785.397 16.6799 786.165 15.9119C786.933 15.1439 787.844 14.7599 788.9 14.7599H794.228C795.284 14.7599 796.197 15.1439 796.965 15.9119C797.733 16.6799 798.116 17.5919 798.116 18.6479V50.4719C800.228 47.6879 803.109 45.3839 806.757 43.5599C810.501 41.6399 815.061 40.6799 820.437 40.6799C826.484 40.6799 831.86 41.9759 836.564 44.5679C841.268 47.1599 844.917 50.9039 847.509 55.7999C850.197 60.5999 851.541 66.3119 851.541 72.9359V113.112Z" fill="black"/>
<path d="M954.993 74.8079C955.089 75.7679 955.137 77.3039 955.137 79.4159C955.137 81.6239 955.089 83.2079 954.993 84.1679C954.705 91.0799 953.073 97.1279 950.097 102.312C947.217 107.496 943.329 111.48 938.433 114.264C933.633 117.048 928.257 118.44 922.305 118.44C912.321 118.44 904.881 115.176 899.985 108.648V113.112C899.985 114.168 899.601 115.08 898.833 115.848C898.065 116.616 897.153 117 896.097 117H890.769C889.713 117 888.801 116.616 888.033 115.848C887.265 115.08 886.881 114.168 886.881 113.112V18.6479C886.881 17.5919 887.265 16.6799 888.033 15.9119C888.801 15.1439 889.713 14.7599 890.769 14.7599H896.097C897.153 14.7599 898.065 15.1439 898.833 15.9119C899.601 16.6799 899.985 17.5919 899.985 18.6479V50.4719C902.097 47.6879 904.977 45.3839 908.625 43.5599C912.369 41.6399 916.929 40.6799 922.305 40.6799C928.353 40.6799 933.777 42.0719 938.577 44.8559C943.377 47.6399 947.217 51.6239 950.097 56.8079C953.073 61.8959 954.705 67.8959 954.993 74.8079ZM920.865 106.056C927.105 106.056 932.049 104.088 935.697 100.152C939.345 96.1199 941.409 90.5999 941.889 83.5919C941.985 82.6319 942.033 81.2879 942.033 79.5599C942.033 71.3999 940.161 64.9679 936.417 60.2639C932.769 55.4639 927.585 53.0639 920.865 53.0639C914.817 53.0639 909.969 54.9359 906.321 58.6799C902.673 62.4239 900.561 67.6559 899.985 74.3759C899.889 75.3359 899.841 77.2079 899.841 79.9919C899.841 82.8719 899.889 84.7919 899.985 85.7519C900.465 91.9919 902.577 96.9359 906.321 100.584C910.161 104.232 915.009 106.056 920.865 106.056Z" fill="black"/>
<path d="M1031.84 69.6239V67.7519C1031.84 63.0479 1030.26 59.4479 1027.09 56.9519C1024.02 54.3599 1019.98 53.0639 1014.99 53.0639C1011.15 53.0639 1008.13 53.7359 1005.92 55.0799C1003.81 56.3279 1001.79 58.2479 999.872 60.8399C999.296 61.6079 998.672 62.1359 998 62.4239C997.328 62.7119 996.416 62.8559 995.264 62.8559H990.944C989.888 62.8559 988.928 62.4719 988.064 61.7039C987.296 60.9359 986.96 60.0239 987.056 58.9679C987.344 56.0879 988.736 53.2559 991.232 50.4719C993.824 47.5919 997.232 45.2399 1001.46 43.4159C1005.68 41.5919 1010.19 40.6799 1014.99 40.6799C1023.92 40.6799 1031.12 43.1759 1036.59 48.1679C1042.16 53.1599 1044.94 60.1679 1044.94 69.1919V113.112C1044.94 114.168 1044.56 115.08 1043.79 115.848C1043.02 116.616 1042.11 117 1041.06 117H1035.73C1034.67 117 1033.76 116.616 1032.99 115.848C1032.22 115.08 1031.84 114.168 1031.84 113.112V107.208C1030.3 110.664 1027.04 113.4 1022.05 115.416C1017.06 117.432 1012.06 118.44 1007.07 118.44C1002.18 118.44 997.808 117.576 993.968 115.848C990.128 114.024 987.152 111.576 985.04 108.504C983.024 105.432 982.016 101.976 982.016 98.1359C982.016 90.9359 984.704 85.3199 990.08 81.2879C995.456 77.1599 1002.61 74.3759 1011.54 72.9359L1031.84 69.6239ZM1031.84 81.1439L1014.85 83.8799C1008.61 84.8399 1003.76 86.4239 1000.3 88.6319C996.848 90.7439 995.12 93.4319 995.12 96.6959C995.12 99.0959 996.224 101.256 998.432 103.176C1000.64 105.096 1004 106.056 1008.51 106.056C1015.42 106.056 1021.04 104.088 1025.36 100.152C1029.68 96.2159 1031.84 91.0799 1031.84 84.7439V81.1439Z" fill="black"/>
<path d="M1146.88 113.112C1146.88 114.168 1146.5 115.08 1145.73 115.848C1144.96 116.616 1144.05 117 1142.99 117H1137.67C1136.61 117 1135.7 116.616 1134.93 115.848C1134.16 115.08 1133.78 114.168 1133.78 113.112V75.0959C1133.78 67.8959 1132 62.4239 1128.45 58.6799C1124.9 54.9359 1119.95 53.0639 1113.62 53.0639C1107.38 53.0639 1102.43 54.9359 1098.79 58.6799C1095.23 62.4239 1093.46 67.8959 1093.46 75.0959V113.112C1093.46 114.168 1093.07 115.08 1092.31 115.848C1091.54 116.616 1090.63 117 1089.57 117H1084.24C1083.19 117 1082.27 116.616 1081.51 115.848C1080.74 115.08 1080.35 114.168 1080.35 113.112V46.0079C1080.35 44.9519 1080.74 44.0399 1081.51 43.2719C1082.27 42.5039 1083.19 42.1199 1084.24 42.1199H1089.57C1090.63 42.1199 1091.54 42.5039 1092.31 43.2719C1093.07 44.0399 1093.46 44.9519 1093.46 46.0079V50.4719C1095.57 47.6879 1098.45 45.3839 1102.1 43.5599C1105.84 41.6399 1110.4 40.6799 1115.78 40.6799C1121.83 40.6799 1127.2 41.9759 1131.91 44.5679C1136.61 47.1599 1140.26 50.9039 1142.85 55.7999C1145.54 60.5999 1146.88 66.3119 1146.88 72.9359V113.112Z" fill="black"/>
<path d="M1195.33 113.112C1195.33 114.168 1194.94 115.08 1194.17 115.848C1193.41 116.616 1192.49 117 1191.44 117H1186.11C1185.05 117 1184.14 116.616 1183.37 115.848C1182.61 115.08 1182.22 114.168 1182.22 113.112V18.6479C1182.22 17.5919 1182.61 16.6799 1183.37 15.9119C1184.14 15.1439 1185.05 14.7599 1186.11 14.7599H1191.44C1192.49 14.7599 1193.41 15.1439 1194.17 15.9119C1194.94 16.6799 1195.33 17.5919 1195.33 18.6479V66.3119L1223.41 44.5679C1224.46 43.7999 1225.37 43.2239 1226.14 42.8399C1226.91 42.3599 1227.87 42.1199 1229.02 42.1199H1236.22C1237.18 42.1199 1238 42.4559 1238.67 43.1279C1239.34 43.7999 1239.68 44.6159 1239.68 45.5759C1239.68 46.6319 1239.15 47.5919 1238.09 48.4559L1203.39 75.5279L1241.69 110.808C1242.65 111.768 1243.13 112.68 1243.13 113.544C1243.13 114.504 1242.8 115.32 1242.13 115.992C1241.45 116.664 1240.64 117 1239.68 117H1232.91C1230.89 117 1228.93 116.184 1227.01 114.552L1195.33 85.3199V113.112Z" fill="black"/>
</svg>
